PathFileType	4	(X/Y/Z)	C:\Users\ebm\Documents\Erivelton\Erivelton2\wc7.trc
DataRate	CameraRate	NumFrames	NumMarkers	Units	OrigDataRate	OrigDataStartFrame	OrigNumFrames
150.00	150.00	      68	28	mm	150.00	282	      1125
Frame#	Time	IJ			PX			C7			T8			RAC			RAS			RPS			RAI			RPI			RLE			RME			RRS			RUS			R3M			R5M			LAC			LAS			LPS			LAI			LPI			LLE			LME			LRS			LUS			L3M			L5M			RW			LW			V_mid_elbow_r			V_mid_elbow_l			V_mid_wrist_r			V_mid_wrist_l			V_mid_trunk_low			V_mid_trunk_upp			
		X1	Y1	Z1	X2	Y2	Z2	X3	Y3	Z3	X4	Y4	Z4	X5	Y5	Z5	X6	Y6	Z6	X7	Y7	Z7	X8	Y8	Z8	X9	Y9	Z9	X10	Y10	Z10	X11	Y11	Z11	X12	Y12	Z12	X13	Y13	Z13	X14	Y14	Z14	X15	Y15	Z15	X16	Y16	Z16	X17	Y17	Z17	X18	Y18	Z18	X19	Y19	Z19	X20	Y20	Z20	X21	Y21	Z21	X22	Y22	Z22	X23	Y23	Z23	X24	Y24	Z24	X25	Y25	Z25	X26	Y26	Z26	X27	Y27	Z27	X28	Y28	Z28	

282	1.873																																																																																					
283	1.880																																																																																					
284	1.887																																																																																					
285	1.893																																																																																					
286	1.900																																																																																					
287	1.907																																																																																					
288	1.913																																																																																					
289	1.920																																																																																					
290	1.927																																																																																					
291	1.933																																																																																					
292	1.940																																																																																					
293	1.947																																																																																					
294	1.953																																																																																					
295	1.960																																																																																					
296	1.967																																																																																					
297	1.973																																																																																					
298	1.980																																																																																					
299	1.987																																																																																					
300	1.993																																																																																					
301	2.000																																																																																					
302	2.007																																																																																					
303	2.013																																																																																					
304	2.020																																																																																					
305	2.027																																																																																					
306	2.033																																																																																					
307	2.040																																																																																					
308	2.047																																																																																					
309	2.053																																																																																					
310	2.060																																																																																					
311	2.067																																																																																					
312	2.073																																																																																					
313	2.080																																																																																					
314	2.087																																																																																					
315	2.093																																																																																					
316	2.100																																																																																					
317	2.107																																																																																					
318	2.113																																																																																					
319	2.120																																																																																					
320	2.127																																																																																					
321	2.133																																																																																					
322	2.140																																																																																					
323	2.147																																																																																					
324	2.153																																																																																					
325	2.160																																																																																					
326	2.167																																																																																					
327	2.173																																																																																					
328	2.180																																																																																					
329	2.187																																																																																					
330	2.193																																																																																					
331	2.200																																																																																					
332	2.207																																																																																					
333	2.213																																																																																					
334	2.220																																																																																					
335	2.227																																																																																					
336	2.233																																																																																					
337	2.240																																																																																					
338	2.247																																																																																					
339	2.253																																																																																					
340	2.260																																																																																					
341	2.267																																																																																					
342	2.273													-1771.85059	1031.80493	216.33708																																																																						
343	2.280													-1764.91003	1033.59277	216.19974							-1726.33362	769.61768	281.80539																																																													
344	2.287													-1757.88037	1035.41199	216.01482							-1722.82996	771.77130	285.61475																																																													
345	2.293													-1750.71423	1037.23608	215.72208							-1719.51270	774.18457	289.62259																																																													
346	2.300													-1743.51794	1039.14709	215.39537							-1716.32739	776.76807	293.81232																																																													
347	2.307													-1736.33752	1041.01953	215.11629							-1713.24512	779.49402	297.89975																																																													
348	2.313													-1729.17615	1042.88574	214.88736							-1710.15308	782.41797	301.98969																																																													
349	2.320													-1722.00476	1044.66785	214.58939							-1707.09460	785.49182	306.17792																																																													
